<svg width="80" height="16" viewBox="0 0 80 16" fill="none" xmlns="http://www.w3.org/2000/svg">
<path d="M7.99956 11.6797L10.7662 13.3531C11.2729 13.6597 11.8929 13.2064 11.7596 12.6331L11.0262 9.4864L13.4729 7.3664C13.9196 6.97973 13.6796 6.2464 13.0929 6.19973L9.87289 5.9264L8.61289 2.95307C8.38623 2.41307 7.61289 2.41307 7.38623 2.95307L6.12623 5.91973L2.90623 6.19307C2.31956 6.23973 2.07956 6.97306 2.52623 7.35973L4.97289 9.47973L4.23956 12.6264C4.10623 13.1997 4.72623 13.6531 5.23289 13.3464L7.99956 11.6797Z" fill="#393126"/>
<path d="M23.9996 11.6797L26.7662 13.3531C27.2729 13.6597 27.8929 13.2064 27.7596 12.6331L27.0262 9.4864L29.4729 7.3664C29.9196 6.97973 29.6796 6.2464 29.0929 6.19973L25.8729 5.9264L24.6129 2.95307C24.3862 2.41307 23.6129 2.41307 23.3862 2.95307L22.1262 5.91973L18.9062 6.19307C18.3196 6.23973 18.0796 6.97306 18.5262 7.35973L20.9729 9.47973L20.2396 12.6264C20.1062 13.1997 20.7262 13.6531 21.2329 13.3464L23.9996 11.6797Z" fill="#393126"/>
<path d="M39.9996 11.6797L42.7662 13.3531C43.2729 13.6597 43.8929 13.2064 43.7596 12.6331L43.0262 9.4864L45.4729 7.3664C45.9196 6.97973 45.6796 6.2464 45.0929 6.19973L41.8729 5.9264L40.6129 2.95307C40.3862 2.41307 39.6129 2.41307 39.3862 2.95307L38.1262 5.91973L34.9062 6.19307C34.3196 6.23973 34.0796 6.97306 34.5262 7.35973L36.9729 9.47973L36.2396 12.6264C36.1062 13.1997 36.7262 13.6531 37.2329 13.3464L39.9996 11.6797Z" fill="#393126"/>
<path d="M55.9996 11.6797L58.7662 13.3531C59.2729 13.6597 59.8929 13.2064 59.7596 12.6331L59.0262 9.4864L61.4729 7.3664C61.9196 6.97973 61.6796 6.2464 61.0929 6.19973L57.8729 5.9264L56.6129 2.95307C56.3862 2.41307 55.6129 2.41307 55.3862 2.95307L54.1262 5.91973L50.9062 6.19307C50.3196 6.23973 50.0796 6.97306 50.5262 7.35973L52.9729 9.47973L52.2396 12.6264C52.1062 13.1997 52.7262 13.6531 53.2329 13.3464L55.9996 11.6797Z" fill="#393126"/>
<path d="M71.9996 11.6797L74.7662 13.3531C75.2729 13.6597 75.8929 13.2064 75.7596 12.6331L75.0262 9.4864L77.4729 7.3664C77.9196 6.97973 77.6796 6.2464 77.0929 6.19973L73.8729 5.9264L72.6129 2.95307C72.3862 2.41307 71.6129 2.41307 71.3862 2.95307L70.1262 5.91973L66.9062 6.19307C66.3196 6.23973 66.0796 6.97306 66.5262 7.35973L68.9729 9.47973L68.2396 12.6264C68.1062 13.1997 68.7262 13.6531 69.2329 13.3464L71.9996 11.6797Z" fill="#393126"/>
</svg>
