<svg width="24" height="24" viewBox="0 0 24 24" fill="none" xmlns="http://www.w3.org/2000/svg">
<path d="M13.1729 9.5C13.7229 9.5 14.1729 9.05 14.1729 8.5V6.5H16.1729C16.7229 6.5 17.1729 6.05 17.1729 5.5C17.1729 4.95 16.7229 4.5 16.1729 4.5H14.1729V2.5C14.1729 1.95 13.7229 1.5 13.1729 1.5C12.6229 1.5 12.1729 1.95 12.1729 2.5V4.5H10.1729C9.62285 4.5 9.17285 4.95 9.17285 5.5C9.17285 6.05 9.62285 6.5 10.1729 6.5H12.1729V8.5C12.1729 9.05 12.6229 9.5 13.1729 9.5ZM8.17285 18.5C7.07285 18.5 6.18285 19.4 6.18285 20.5C6.18285 21.6 7.07285 22.5 8.17285 22.5C9.27285 22.5 10.1729 21.6 10.1729 20.5C10.1729 19.4 9.27285 18.5 8.17285 18.5ZM18.1729 18.5C17.0729 18.5 16.1829 19.4 16.1829 20.5C16.1829 21.6 17.0729 22.5 18.1729 22.5C19.2729 22.5 20.1729 21.6 20.1729 20.5C20.1729 19.4 19.2729 18.5 18.1729 18.5ZM9.27285 13.5H16.7229C17.4729 13.5 18.1329 13.09 18.4729 12.47L21.7129 6.33C21.9629 5.85 21.7929 5.25 21.3129 4.99C20.8229 4.72 20.2129 4.91 19.9529 5.4L16.7229 11.5H9.70285L5.44285 2.5H3.17285C2.62285 2.5 2.17285 2.95 2.17285 3.5C2.17285 4.05 2.62285 4.5 3.17285 4.5H4.17285L7.77285 12.09L6.42285 14.53C5.69285 15.87 6.65285 17.5 8.17285 17.5H19.1729C19.7229 17.5 20.1729 17.05 20.1729 16.5C20.1729 15.95 19.7229 15.5 19.1729 15.5H8.17285L9.27285 13.5Z" fill="#F2EFEA"/>
</svg>
