<svg width="16" height="17" viewBox="0 0 16 17" fill="none" xmlns="http://www.w3.org/2000/svg">
<path d="M8.00016 1.8335C4.32016 1.8335 1.3335 4.82016 1.3335 8.50016C1.3335 12.1802 4.32016 15.1668 8.00016 15.1668C11.6802 15.1668 14.6668 12.1802 14.6668 8.50016C14.6668 4.82016 11.6802 1.8335 8.00016 1.8335ZM6.1935 11.3602L3.80016 8.96683C3.54016 8.70683 3.54016 8.28683 3.80016 8.02683C4.06016 7.76683 4.48016 7.76683 4.74016 8.02683L6.66683 9.94683L11.2535 5.36016C11.5135 5.10016 11.9335 5.10016 12.1935 5.36016C12.4535 5.62016 12.4535 6.04016 12.1935 6.30016L7.1335 11.3602C6.88016 11.6202 6.4535 11.6202 6.1935 11.3602Z" fill="#2D543C"/>
</svg>
