<svg width="25" height="24" viewBox="0 0 25 24" fill="none" xmlns="http://www.w3.org/2000/svg">
<path d="M18.7997 5.70973C18.4097 5.31973 17.7797 5.31973 17.3897 5.70973L12.4997 10.5897L7.60973 5.69973C7.21973 5.30973 6.58973 5.30973 6.19973 5.69973C5.80973 6.08973 5.80973 6.71973 6.19973 7.10973L11.0897 11.9997L6.19973 16.8897C5.80973 17.2797 5.80973 17.9097 6.19973 18.2997C6.58973 18.6897 7.21973 18.6897 7.60973 18.2997L12.4997 13.4097L17.3897 18.2997C17.7797 18.6897 18.4097 18.6897 18.7997 18.2997C19.1897 17.9097 19.1897 17.2797 18.7997 16.8897L13.9097 11.9997L18.7997 7.10973C19.1797 6.72973 19.1797 6.08973 18.7997 5.70973Z" fill="#F2EFEA"/>
</svg>
