<svg width="25" height="24" viewBox="0 0 25 24" fill="none" xmlns="http://www.w3.org/2000/svg">
<path d="M12.333 2.5C17.5869 2.5 21.833 6.74614 21.833 12C21.833 17.2539 17.5869 21.5 12.333 21.5C7.07915 21.5 2.83301 17.2539 2.83301 12C2.83301 6.74614 7.07915 2.5 12.333 2.5ZM12.333 3.5C7.64687 3.5 3.83301 7.31386 3.83301 12C3.83301 16.6861 7.64687 20.5 12.333 20.5C17.0192 20.5 20.833 16.6861 20.833 12C20.833 7.31386 17.0192 3.5 12.333 3.5ZM9.38672 9.05371C9.58146 8.85897 9.89511 8.85897 10.0898 9.05371L12.333 11.2969L14.5762 9.05371C14.7576 8.87229 15.0826 8.86501 15.2812 9.05566C15.474 9.25054 15.4734 9.56275 15.2793 9.75684L13.0361 12L15.2793 14.2432C15.474 14.4379 15.474 14.7516 15.2793 14.9463C15.0846 15.141 14.7709 15.141 14.5762 14.9463L12.333 12.7031L10.0898 14.9463C9.89511 15.141 9.58146 15.141 9.38672 14.9463C9.19198 14.7516 9.19198 14.4379 9.38672 14.2432L11.6299 12L9.38672 9.75684C9.19198 9.5621 9.19198 9.24845 9.38672 9.05371Z" stroke="#DC362E"/>
</svg>
