<svg width="239" height="24" viewBox="0 0 239 24" fill="none" xmlns="http://www.w3.org/2000/svg">
<rect x="0.5" y="0.5" width="34" height="23" rx="3.5" fill="white" stroke="#D9D9D9"/>
<path fill-rule="evenodd" clip-rule="evenodd" d="M10.6253 16.2582H8.50494L6.91495 10.1924C6.83949 9.91334 6.67925 9.66667 6.44354 9.5504C5.85531 9.25823 5.20712 9.0257 4.5 8.90843V8.6749H7.91567C8.38708 8.6749 8.74064 9.0257 8.79957 9.43313L9.62454 13.8086L11.7438 8.6749H13.8052L10.6253 16.2582ZM14.9838 16.2582H12.9813L14.6302 8.6749H16.6327L14.9838 16.2582ZM19.2234 10.7757C19.2823 10.3673 19.6359 10.1337 20.0483 10.1337C20.6965 10.0751 21.4026 10.1924 21.9919 10.4835L22.3454 8.85081C21.7562 8.61727 21.108 8.5 20.5198 8.5C18.5762 8.5 17.162 9.55041 17.162 11.0082C17.162 12.1173 18.1637 12.6996 18.8708 13.0504C19.6359 13.4002 19.9305 13.6338 19.8716 13.9835C19.8716 14.5082 19.2823 14.7418 18.6941 14.7418C17.9869 14.7418 17.2798 14.5669 16.6327 14.2747L16.2791 15.9085C16.9862 16.1996 17.7512 16.3169 18.4584 16.3169C20.6376 16.3745 21.9919 15.3251 21.9919 13.75C21.9919 11.7665 19.2234 11.6502 19.2234 10.7757ZM29 16.2582L27.41 8.6749H25.7022C25.3486 8.6749 24.9951 8.90843 24.8772 9.25823L21.9329 16.2582H23.9943L24.4058 15.1502H26.9386L27.1743 16.2582H29ZM25.9968 10.7171L26.585 13.5751H24.9361L25.9968 10.7171Z" fill="#172B85"/>
<rect x="51.5" y="0.5" width="34" height="23" rx="3.5" fill="white" stroke="#D9D9D9"/>
<path d="M73.1758 5C76.9444 5 80 8.09091 80 11.9033C79.9998 15.7156 76.9443 18.8057 73.1758 18.8057C71.4864 18.8056 69.9416 18.1832 68.75 17.1543C67.5584 18.1832 66.0137 18.8056 64.3242 18.8057C60.5557 18.8057 57.5002 15.7156 57.5 11.9033C57.5 8.09091 60.5556 5 64.3242 5C66.0134 5.00011 67.5584 5.62186 68.75 6.65039C69.9416 5.62185 71.4866 5.00011 73.1758 5Z" fill="#ED0006"/>
<path d="M73.1758 5C76.9444 5 80 8.09091 80 11.9033C79.9998 15.7156 76.9443 18.8057 73.1758 18.8057C71.4863 18.8056 69.9416 18.1832 68.75 17.1543C70.2164 15.8882 71.1474 14.0064 71.1475 11.9033C71.1475 9.79982 70.2168 7.91652 68.75 6.65039C69.9416 5.62185 71.4866 5.00011 73.1758 5Z" fill="#F9A000"/>
<path d="M68.75 6.65088C70.2166 7.917 71.1475 9.79949 71.1475 11.9028C71.1475 14.0059 70.2163 15.8877 68.75 17.1538C67.2837 15.8877 66.3525 14.0059 66.3525 11.9028C66.3525 9.79951 67.2834 7.917 68.75 6.65088Z" fill="#FF5E00"/>
<rect x="102.5" y="0.5" width="34" height="23" rx="3.5" fill="white" stroke="#D9D9D9"/>
<path fill-rule="evenodd" clip-rule="evenodd" d="M111.9 15.2412H110.344C110.238 15.2412 110.147 15.3186 110.131 15.4236L109.502 19.4127C109.489 19.4914 109.55 19.5624 109.63 19.5624H110.373C110.479 19.5624 110.57 19.485 110.586 19.3797L110.756 18.3038C110.772 18.1985 110.863 18.1212 110.969 18.1212H111.462C112.486 18.1212 113.078 17.6253 113.232 16.6427C113.302 16.2128 113.235 15.875 113.034 15.6384C112.813 15.3787 112.421 15.2412 111.9 15.2412ZM112.079 16.6982C111.994 17.2564 111.568 17.2564 111.156 17.2564H110.921L111.085 16.2138C111.095 16.1509 111.15 16.1045 111.214 16.1045H111.321C111.602 16.1045 111.867 16.1045 112.004 16.2646C112.086 16.3602 112.111 16.5021 112.079 16.6982ZM116.55 16.6803H115.805C115.742 16.6803 115.687 16.7267 115.677 16.7897L115.644 16.9981L115.592 16.9226C115.431 16.6885 115.071 16.6103 114.712 16.6103C113.889 16.6103 113.186 17.2337 113.049 18.1084C112.978 18.5446 113.079 18.9617 113.326 19.2527C113.553 19.5202 113.878 19.6316 114.265 19.6316C114.928 19.6316 115.296 19.2051 115.296 19.2051L115.263 19.4122C115.25 19.4913 115.311 19.5623 115.39 19.5623H116.061C116.168 19.5623 116.258 19.4849 116.275 19.3796L116.678 16.83C116.69 16.7515 116.63 16.6803 116.55 16.6803ZM115.512 18.1302C115.44 18.5557 115.102 18.8414 114.671 18.8414C114.455 18.8414 114.282 18.7721 114.171 18.6406C114.061 18.5101 114.019 18.3242 114.054 18.1172C114.121 17.6952 114.465 17.4003 114.889 17.4003C115.1 17.4003 115.272 17.4705 115.386 17.6031C115.499 17.7371 115.544 17.9241 115.512 18.1302ZM119.769 16.6802H120.518C120.622 16.6802 120.684 16.7977 120.624 16.8837L118.134 20.4776C118.094 20.5359 118.027 20.5705 117.957 20.5705H117.209C117.104 20.5705 117.042 20.452 117.103 20.3657L117.878 19.2714L117.054 16.8516C117.025 16.7675 117.087 16.6802 117.177 16.6802H117.912C118.008 16.6802 118.092 16.7429 118.12 16.8344L118.557 18.2958L119.59 16.775C119.63 16.7156 119.698 16.6802 119.769 16.6802Z" fill="#253B80"/>
<path fill-rule="evenodd" clip-rule="evenodd" d="M127.886 19.4124L128.524 15.3504C128.534 15.2874 128.588 15.2409 128.652 15.2407H129.371C129.45 15.2407 129.511 15.3119 129.498 15.3906L128.869 19.3795C128.852 19.4847 128.762 19.5621 128.655 19.5621H128.013C127.934 19.5621 127.873 19.4912 127.886 19.4124ZM122.996 15.2409H121.44C121.334 15.2409 121.244 15.3183 121.227 15.4234L120.598 19.4124C120.585 19.4912 120.646 19.5621 120.726 19.5621H121.524C121.598 19.5621 121.662 19.508 121.673 19.4343L121.852 18.3036C121.868 18.1982 121.959 18.1209 122.065 18.1209H122.557C123.582 18.1209 124.174 17.625 124.328 16.6424C124.398 16.2125 124.331 15.8747 124.13 15.6381C123.909 15.3784 123.517 15.2409 122.996 15.2409ZM123.176 16.6979C123.091 17.2561 122.664 17.2561 122.252 17.2561H122.017L122.182 16.2136C122.192 16.1506 122.246 16.1042 122.31 16.1042H122.418C122.698 16.1042 122.964 16.1042 123.1 16.2643C123.182 16.3599 123.207 16.5018 123.176 16.6979ZM127.646 16.68H126.902C126.838 16.68 126.783 16.7264 126.774 16.7895L126.741 16.9978L126.688 16.9223C126.527 16.6882 126.168 16.61 125.809 16.61C124.986 16.61 124.283 17.2335 124.146 18.1081C124.075 18.5443 124.176 18.9615 124.423 19.2524C124.65 19.5199 124.975 19.6314 125.361 19.6314C126.025 19.6314 126.392 19.2048 126.392 19.2048L126.359 19.4119C126.347 19.491 126.408 19.562 126.488 19.562H127.158C127.264 19.562 127.355 19.4846 127.372 19.3794L127.774 16.8297C127.787 16.7513 127.726 16.68 127.646 16.68ZM126.608 18.1299C126.536 18.5555 126.198 18.8412 125.767 18.8412C125.551 18.8412 125.378 18.7718 125.267 18.6403C125.157 18.5098 125.115 18.3239 125.15 18.1169C125.218 17.6949 125.561 17.4 125.985 17.4C126.196 17.4 126.368 17.4702 126.482 17.6028C126.596 17.7368 126.641 17.9238 126.608 18.1299Z" fill="#179BD7"/>
<path d="M117.657 13.8138L117.848 12.5991L117.422 12.5892H115.388L116.802 3.62534C116.806 3.59828 116.821 3.57305 116.841 3.55513C116.862 3.53722 116.889 3.52734 116.917 3.52734H120.347C121.485 3.52734 122.271 3.7643 122.682 4.232C122.874 4.45141 122.996 4.68068 123.056 4.933C123.118 5.19776 123.119 5.51406 123.058 5.89985L123.054 5.92801V6.1752L123.246 6.28418C123.408 6.37011 123.537 6.46848 123.636 6.58111C123.8 6.7687 123.907 7.00712 123.952 7.28978C123.998 7.5805 123.983 7.92643 123.907 8.31807C123.819 8.76859 123.677 9.16096 123.485 9.48202C123.309 9.77785 123.085 10.0232 122.818 10.2134C122.563 10.394 122.261 10.5312 121.919 10.619C121.588 10.7052 121.21 10.7488 120.796 10.7488H120.529C120.338 10.7488 120.153 10.8175 120.007 10.9408C119.861 11.0665 119.765 11.2383 119.735 11.4263L119.715 11.5357L119.377 13.6767L119.362 13.7553C119.358 13.7802 119.351 13.7927 119.34 13.8011C119.331 13.8087 119.318 13.8138 119.305 13.8138H117.657Z" fill="#253B80"/>
<path d="M123.428 5.95703C123.418 6.02248 123.406 6.0894 123.393 6.15815C122.941 8.48056 121.393 9.28286 119.417 9.28286H118.411C118.169 9.28286 117.965 9.45838 117.928 9.6968L117.412 12.9645L117.266 13.8907C117.242 14.0473 117.363 14.1884 117.52 14.1884H119.305C119.517 14.1884 119.696 14.0348 119.73 13.8264L119.747 13.7357L120.083 11.603L120.105 11.4861C120.138 11.2769 120.318 11.1234 120.529 11.1234H120.796C122.525 11.1234 123.879 10.4213 124.275 8.38951C124.44 7.54077 124.354 6.8321 123.917 6.33367C123.785 6.18338 123.62 6.05868 123.428 5.95703Z" fill="#179BD7"/>
<path d="M122.955 5.76832C122.886 5.7482 122.815 5.72992 122.741 5.71346C122.668 5.69738 122.593 5.68312 122.515 5.67068C122.244 5.6268 121.946 5.60596 121.628 5.60596H118.939C118.873 5.60596 118.81 5.62095 118.754 5.64801C118.63 5.70761 118.538 5.825 118.516 5.96871L117.944 9.5911L117.927 9.69678C117.965 9.45836 118.169 9.28283 118.41 9.28283H119.417C121.393 9.28283 122.941 8.48017 123.393 6.15813C123.407 6.08938 123.418 6.02246 123.428 5.95701C123.314 5.8963 123.19 5.84438 123.056 5.80013C123.023 5.78916 122.989 5.77856 122.955 5.76832Z" fill="#222D65"/>
<path d="M118.516 5.96866C118.538 5.82495 118.63 5.70757 118.754 5.64833C118.811 5.62126 118.873 5.60627 118.939 5.60627H121.628C121.946 5.60627 122.244 5.62712 122.515 5.671C122.593 5.68343 122.668 5.6977 122.741 5.71378C122.815 5.73024 122.886 5.74853 122.955 5.76863C122.989 5.77887 123.023 5.78947 123.057 5.80008C123.19 5.84433 123.314 5.89662 123.428 5.95696C123.563 5.09871 123.427 4.51437 122.963 3.98523C122.452 3.40271 121.528 3.15332 120.347 3.15332H116.917C116.675 3.15332 116.47 3.32884 116.432 3.56763L115.004 12.6236C114.975 12.8028 115.114 12.9645 115.294 12.9645H117.412L117.944 9.59105L118.516 5.96866Z" fill="#253B80"/>
<rect x="153.5" y="0.5" width="34" height="23" rx="3.5" fill="white" stroke="#D9D9D9"/>
<path d="M180.498 14.3188H180.515L181.974 10.6557H183L179.846 18.0004H178.874L180.045 15.4311L177.977 10.6557H179.002L180.498 14.3188ZM175.562 10.4897C176.259 10.4897 176.81 10.6798 177.214 11.0541C177.619 11.4288 177.819 11.9526 177.819 12.6127V15.7582H176.916V15.0502H176.875C176.482 15.6329 175.966 15.9251 175.316 15.9252C174.765 15.9252 174.296 15.7583 173.926 15.4252C173.563 15.116 173.358 14.6579 173.37 14.1762C173.37 13.6471 173.569 13.2306 173.961 12.9155C174.354 12.6004 174.882 12.4457 175.539 12.4457C176.101 12.4458 176.558 12.5532 176.921 12.7553V12.5356C176.921 12.2085 176.781 11.8991 176.535 11.685C176.283 11.4591 175.96 11.3345 175.626 11.3344C175.099 11.3344 174.682 11.5602 174.377 12.0122L173.545 11.4829C173.991 10.8228 174.665 10.4897 175.562 10.4897ZM171.089 8.30122C171.693 8.28933 172.28 8.5215 172.708 8.94965C173.563 9.75832 173.615 11.1195 172.813 11.9936L172.708 12.101C172.268 12.5232 171.728 12.7377 171.089 12.7377H169.53V15.7582H168.586V8.30122H171.089ZM175.685 13.2192C175.304 13.2192 174.982 13.3143 174.724 13.4985C174.472 13.6828 174.342 13.9153 174.342 14.1948C174.342 14.4444 174.46 14.6762 174.654 14.8188C174.865 14.9851 175.123 15.0747 175.386 15.0688C175.785 15.0688 176.166 14.9079 176.448 14.6225C176.758 14.3252 176.917 13.974 176.917 13.5698C176.623 13.3319 176.213 13.2132 175.685 13.2192ZM169.53 11.8217H171.113C171.465 11.8336 171.805 11.6907 172.045 11.435C172.538 10.9176 172.526 10.0849 172.016 9.5854C171.776 9.34754 171.453 9.21723 171.113 9.21723H169.53V11.8217Z" fill="#3C4043"/>
<path d="M166.272 12.0831C166.272 11.7917 166.249 11.5003 166.202 11.2148H162.222V12.8621H164.502C164.408 13.3914 164.103 13.8671 163.658 14.1644V15.2349H165.018C165.815 14.4915 166.272 13.3914 166.272 12.0831Z" fill="#4285F4"/>
<path d="M162.222 16.2696C163.359 16.2696 164.321 15.889 165.018 15.2349L163.658 14.1645C163.277 14.4261 162.791 14.5748 162.222 14.5748C161.12 14.5748 160.188 13.8195 159.854 12.8086H158.453V13.9147C159.168 15.3598 160.628 16.2696 162.222 16.2696Z" fill="#34A853"/>
<path d="M159.854 12.8088C159.678 12.2796 159.678 11.7027 159.854 11.1675V10.0674H158.453C157.849 11.2746 157.849 12.7018 158.453 13.909L159.854 12.8088Z" fill="#FBBC04"/>
<path d="M162.222 9.40114C162.826 9.38925 163.406 9.62117 163.84 10.0434L165.047 8.81836C164.28 8.09285 163.271 7.69442 162.222 7.70631C160.628 7.70631 159.168 8.62211 158.453 10.0672L159.854 11.1733C160.188 10.1564 161.12 9.40114 162.222 9.40114Z" fill="#EA4335"/>
<rect x="204.5" y="0.5" width="34" height="23" rx="3.5" fill="white" stroke="#D9D9D9"/>
<path fill-rule="evenodd" clip-rule="evenodd" d="M212.346 8.93296C212.816 8.97261 213.286 8.69506 213.58 8.34316C213.869 7.98135 214.06 7.49563 214.011 7C213.595 7.01983 213.081 7.27755 212.787 7.63936C212.518 7.95161 212.287 8.45715 212.346 8.93296ZM217.938 15.3167V7.58981H220.802C222.281 7.58981 223.314 8.62072 223.314 10.1274C223.314 11.6342 222.261 12.675 220.763 12.675H219.123V15.3167H217.938ZM214.006 9.02714C213.592 9.00301 213.214 9.1532 212.909 9.27451C212.712 9.35257 212.546 9.41868 212.42 9.41868C212.278 9.41868 212.104 9.34904 211.91 9.27085C211.655 9.16839 211.364 9.05125 211.058 9.05687C210.358 9.06679 209.707 9.46825 209.35 10.1076C208.615 11.3863 209.159 13.2796 209.869 14.3205C210.216 14.8359 210.632 15.4009 211.181 15.3811C211.422 15.3719 211.596 15.2974 211.775 15.2202C211.982 15.1314 212.197 15.0391 212.532 15.0391C212.856 15.0391 213.061 15.129 213.259 15.2152C213.446 15.2973 213.626 15.376 213.893 15.3712C214.461 15.3613 214.819 14.8557 215.166 14.3403C215.542 13.7871 215.706 13.2471 215.731 13.1652L215.734 13.1557C215.734 13.1551 215.729 13.153 215.721 13.1492C215.596 13.0911 214.637 12.6469 214.628 11.4557C214.619 10.4559 215.388 9.94937 215.509 9.86963L215.509 9.86962C215.517 9.86477 215.522 9.8615 215.524 9.85979C215.034 9.12626 214.27 9.04696 214.006 9.02714ZM225.478 15.3761C226.222 15.3761 226.913 14.9945 227.226 14.3898H227.25V15.3166H228.347V11.4706C228.347 10.3554 227.466 9.63672 226.11 9.63672C224.851 9.63672 223.921 10.3653 223.887 11.3665H224.954C225.042 10.8907 225.478 10.5784 226.075 10.5784C226.8 10.5784 227.206 10.9204 227.206 11.5499V11.9761L225.728 12.0653C224.352 12.1496 223.608 12.7195 223.608 13.7108C223.608 14.712 224.376 15.3761 225.478 15.3761ZM225.796 14.4592C225.165 14.4592 224.763 14.1519 224.763 13.6811C224.763 13.1954 225.15 12.9129 225.889 12.8683L227.206 12.784V13.2202C227.206 13.9438 226.599 14.4592 225.796 14.4592ZM231.985 15.619C231.51 16.9721 230.967 17.4181 229.811 17.4181C229.723 17.4181 229.429 17.4082 229.361 17.3884V16.4616C229.434 16.4715 229.615 16.4814 229.708 16.4814C230.232 16.4814 230.526 16.2584 230.707 15.6785L230.815 15.3365L228.807 9.71108H230.046L231.442 14.2758H231.466L232.862 9.71108H234.066L231.985 15.619ZM219.123 8.60087H220.489C221.517 8.60087 222.104 9.15598 222.104 10.1324C222.104 11.1088 221.517 11.6688 220.484 11.6688H219.123V8.60087Z" fill="black"/>
</svg>
